<?xml version="1.0" encoding="utf-8"?>
<!-- Generator: Adobe Illustrator 16.0.0, SVG Export Plug-In . SVG Version: 6.00 Build 0)  -->
<!DOCTYPE svg PUBLIC "-//W3C//DTD SVG 1.1//EN" "http://www.w3.org/Graphics/SVG/1.1/DTD/svg11.dtd">
<svg version="1.1" xmlns="http://www.w3.org/2000/svg" xmlns:xlink="http://www.w3.org/1999/xlink" x="0px" y="0px"
	 width="1141.677px" height="646.459px" viewBox="0 0 1141.677 646.459" enable-background="new 0 0 1141.677 646.459"
	 xml:space="preserve">
<g id="Editable" display="none">
	<text transform="matrix(0.9969 0 0 1 390.7656 360.2661)" display="inline"><tspan x="0" y="0" fill="#2392CF" font-family="'FranklinGothic-Demi'" font-size="201.2474">SKY</tspan><tspan x="348.646" y="0" fill="#0C2D54" font-family="'FranklinGothic-Demi'" font-size="201.2474">SILK</tspan></text>
	
		<text transform="matrix(0.9969 0 0 1 299.813 415.8638)" display="inline" fill="#4C4C4C" font-family="'SweetSansPro-Medium'" font-size="49.7193" letter-spacing="3.009">MANAGED CLOUD SERVICES</text>
	<g display="inline">
		<path fill="#0C2D54" d="M170.345,145.224c8.442-0.701,16.921-0.973,25.401-0.677c11.957,0.472,23.994,2.409,35.166,6.933
			c6.215,2.671,12.482,5.306,18.23,8.939c19.054,11.722,33.604,30.042,42.881,50.453c17.626-1.497,35.943,2.439,51.042,12
			c5.957,3.725,11.2,8.487,15.859,13.751c11.031,11.513,16.789,27.463,17.758,43.329c0.473,7.309-0.006,14.697-1.47,21.886
			c-3.294,15.89-12.108,30.334-23.938,41.153c-13.08,11.956-29.948,19.932-47.562,21.323c0.958-9.44,2.593-18.822,4.621-28.081
			c7.284-3.002,14.694-5.942,21.207-10.507c3.489-2.408,6.66-5.347,9.185-8.804c1.821-2.634,3.682-5.252,5.118-8.128
			c6.727-13.331,7.482-29.715,1.596-43.487c-3.097-7.309-8.303-13.691-14.896-18.008c-6.578-4.91-14.641-7.43-22.71-8.205
			c-12.334-1.273-24.642,0.692-36.978,0.6c-2.66-11.874-6.62-23.622-13.126-33.931c-3.577-5.635-7.916-10.806-13.066-15.024
			c-4.74-3.793-9.743-7.322-15.222-9.943c-15.331-7.512-32.797-9.29-49.585-8.09c-24.312-0.284-47.84,15.035-58.414,37.149
			c-2.687,5.671-4.504,11.764-5.255,18.009c-0.56,10.604-1.365,21.46,1.281,31.889c1.818,6.9,4.66,13.543,8.706,19.405
			c8.72,12.644,21.815,21.637,35.856,27.163c1.696-1.055,3.19-2.493,4.987-3.416c10.692-6.359,24.927-5.878,35.11,1.318
			c7.632,5.194,12.859,13.991,13.418,23.349c0.815,9.853-3.638,19.894-11.237,26.034c-8.196,6.905-19.798,9.114-29.975,6.116
			c-10.056-2.84-18.616-10.981-21.591-21.195c-0.734-2.294-1.04-4.704-1.289-7.09c-5.413-2.583-11.056-4.719-16.251-7.756
			c-10.141-5.783-19.202-13.491-26.655-22.536c-9.713-11.828-16.692-26.103-19.294-41.324c-1.159-6.419-1.152-12.932-1.354-19.421
			c-0.003-11.061,0.959-22.328,4.788-32.778c2.326-6.122,4.971-12.138,8.421-17.697
			C116.046,165.509,142.314,148.835,170.345,145.224z M180.035,318.191c-4.591,1.241-8.162,5.75-8.135,10.608
			c-0.132,3.663,1.75,7.298,4.722,9.354c3.651,2.676,8.912,2.759,12.663,0.244c2.722-1.738,4.646-4.751,5.006-8.011
			c0.564-4.079-1.378-8.32-4.72-10.612C186.822,317.842,183.243,317.301,180.035,318.191z"/>
	</g>
	<g display="inline">
		<g>
			<g>
				<path fill="#2392CF" d="M12.355,257.65c12.22-25.438,38.12-43.573,65.935-45.912c-1.064,9.444-2.652,18.83-4.659,28.113
					c-7.107,2.921-14.314,5.802-20.725,10.149c-4.303,2.924-8.151,6.615-10.97,11.043c-7.167,9.879-10.276,22.522-9.198,34.684
					c0.784,8.701,3.772,17.3,9.108,24.216c3.708,4.915,8.707,8.621,13.96,11.685c9.063,5.011,19.679,6.039,29.81,5.749
					c8.502-0.054,16.959-1.093,25.465-0.999c3.011,13.577,7.801,27.022,16.078,38.263c3.853,5.173,8.446,9.797,13.722,13.467
					c9.179,7.085,20.141,11.552,31.424,13.732c8.354,1.659,16.895,2.12,25.376,1.809c3.07-0.265,6.159-0.227,9.238-0.398
					c16.542-1.217,32.306-9.464,43.424-21.854c8.842-9.856,14.908-22.636,15.6-36.052c0.398-8.622,0.852-17.337-0.77-25.874
					c-1.882-9.267-5.778-18.15-11.613-25.552c-8.288-10.636-19.758-18.358-32.024-23.509c-3.606,2.513-7.572,4.602-11.866,5.573
					c-11.778,3.03-25.113-1.113-32.884-10.664c-3.945-4.726-6.437-10.69-6.971-16.862c-0.639-6.888,1.111-13.979,4.938-19.711
					c6.283-9.695,17.995-15.238,29.344-14.277c6.868,0.422,13.597,3.135,18.845,7.662c6.912,5.807,11.131,14.852,10.9,23.987
					c3.391,1.702,6.953,3.075,10.314,4.874c17.997,9.558,32.971,25.028,41.699,43.674c4.133,8.795,6.811,18.331,7.675,28.052
					c0.458,7.397,0.658,14.845,0.245,22.257c-0.544,9.514-2.352,19.057-6.239,27.771c-8.353,21.203-25.129,38.45-45.153,48.595
					c-11.891,5.941-24.978,9.729-38.274,10.02c-8.867,0.441-17.788,0.473-26.631-0.434c-10.726-1.102-21.371-3.688-31.139-8.378
					c-20.235-8.177-36.967-23.834-48.443-42.425c-3.001-4.76-5.575-9.769-7.948-14.867c-19.077,1.537-38.949-3.109-54.647-14.464
					c-4.199-3.059-8.082-6.561-11.485-10.5c-11.161-11.166-17.16-26.823-18.443-42.506C4.245,284.103,6.343,270.022,12.355,257.65z
					 M199.887,233.779c-3.25,0.383-6.253,2.315-8.021,5.095c-2.021,3.126-2.336,7.317-0.738,10.696
					c1.415,3.168,4.374,5.573,7.719,6.287c3.222,0.76,6.745-0.014,9.37-2.032c2.723-2.08,4.494-5.502,4.349-8.993
					c0.091-3.073-1.331-6.109-3.554-8.175C206.593,234.382,203.14,233.335,199.887,233.779z"/>
			</g>
		</g>
	</g>
</g>
<g id="Full_Color">
	<g>
		<path fill="#2392CF" d="M496.558,255.614l-26.644,8.942c-3.585-10.613-11.175-15.919-22.771-15.919
			c-12.379,0-18.567,4.029-18.567,12.086c0,3.211,1.157,5.93,3.473,8.156c2.314,2.228,7.547,4.163,15.699,5.804
			c13.628,2.759,23.605,5.547,29.933,8.363c6.326,2.816,11.657,7.352,15.994,13.607c4.338,6.255,6.506,13.246,6.506,20.975
			c0,12.118-4.65,22.597-13.946,31.439c-9.298,8.842-23.081,13.263-41.35,13.263c-13.702,0-25.364-3.128-34.989-9.384
			c-9.624-6.256-15.968-15.542-19.034-27.859l28.995-6.583c3.259,12.513,12.318,18.769,27.177,18.769
			c7.169,0,12.512-1.391,16.033-4.176c3.519-2.784,5.279-6.108,5.279-9.974c0-3.93-1.598-6.977-4.794-9.139
			c-3.196-2.162-9.357-4.193-18.486-6.095c-17.021-3.541-29.151-8.374-36.391-14.499c-7.24-6.125-10.858-15.082-10.858-26.872
			c0-11.921,4.321-21.977,12.965-30.165c8.645-8.187,20.372-12.282,35.182-12.282C472.19,224.07,489.055,234.585,496.558,255.614z"
			/>
		<path fill="#2392CF" d="M551.413,226.134v63.019l41.919-63.019h29.98l-32.114,47.889l40.146,86.243h-34.491l-26.681-58.249
			l-18.76,27.492v30.757h-30.758V226.134H551.413z"/>
		<path fill="#2392CF" d="M743.603,226.134l-42.023,77.63v56.502h-31.248v-56.502l-42.023-77.63h36.339l25.491,50.788l25.375-50.788
			H743.603z"/>
		<path fill="#0C2D54" d="M843.125,255.614l-26.644,8.942c-3.585-10.613-11.175-15.919-22.771-15.919
			c-12.379,0-18.567,4.029-18.567,12.086c0,3.211,1.157,5.93,3.474,8.156c2.313,2.228,7.547,4.163,15.698,5.804
			c13.628,2.759,23.606,5.547,29.934,8.363c6.325,2.816,11.656,7.352,15.994,13.607c4.338,6.255,6.507,13.246,6.507,20.975
			c0,12.118-4.65,22.597-13.947,31.439c-9.298,8.842-23.08,13.263-41.35,13.263c-13.701,0-25.364-3.128-34.988-9.384
			s-15.968-15.542-19.034-27.859l28.995-6.583c3.259,12.513,12.318,18.769,27.177,18.769c7.169,0,12.513-1.391,16.032-4.176
			c3.52-2.784,5.279-6.108,5.279-9.974c0-3.93-1.598-6.977-4.794-9.139c-3.195-2.162-9.357-4.193-18.486-6.095
			c-17.021-3.541-29.15-8.374-36.391-14.499c-7.239-6.125-10.857-15.082-10.857-26.872c0-11.921,4.321-21.977,12.966-30.165
			c8.645-8.187,20.371-12.282,35.181-12.282C818.757,224.07,835.622,234.585,843.125,255.614z"/>
		<path fill="#0C2D54" d="M898.471,226.134v134.132h-31.248V226.134H898.471z"/>
		<path fill="#0C2D54" d="M957.048,333.734h53.19v26.532h-84.928V226.134h31.737V333.734z"/>
		<path fill="#0C2D54" d="M1057.061,226.134v63.019l41.919-63.019h29.98l-32.113,47.889l40.146,86.243h-34.491l-26.681-58.249
			l-18.761,27.492v30.757h-30.758V226.134H1057.061z"/>
	</g>
	<g>
		<path fill="#4C4C4C" d="M333.613,415.864v-22.072h-0.248l-10.754,18.194h-0.892l-10.755-18.194h-0.248v22.072h-5.303v-32.463h5.7
			l11.25,19.14h0.099l11.25-19.14h5.452v32.463H333.613z"/>
		<path fill="#4C4C4C" d="M364.641,383.401h5.055l15.017,32.463h-6.096l-3.915-8.75h-15.413l-3.866,8.75h-5.798L364.641,383.401z
			 M361.271,402.64h11.448l-5.551-12.577h-0.297L361.271,402.64z"/>
		<path fill="#4C4C4C" d="M424.362,383.401v32.463h-4.906l-18.685-22.521h-0.05v22.521h-5.551v-32.463h4.907l18.684,22.521h0.05
			v-22.521H424.362z"/>
		<path fill="#4C4C4C" d="M449.838,383.401h5.055l15.017,32.463h-6.096l-3.915-8.75h-15.413l-3.866,8.75h-5.798L449.838,383.401z
			 M446.468,402.64h11.448l-5.551-12.577h-0.297L446.468,402.64z"/>
		<path fill="#4C4C4C" d="M505.893,391.752c-2.726-2.733-7.335-4.374-11.151-4.374c-6.988,0-11.895,5.567-11.895,12.279
			c0,6.264,4.262,12.229,12.44,12.229c3.37,0,7.335-0.995,9.516-2.636v-6.512h-10.16v-4.972h15.215v14.218
			c-4.063,2.983-9.813,4.872-14.917,4.872c-10.259,0-17.891-7.705-17.891-17.25s7.731-17.201,17.644-17.201
			c5.154,0,10.655,2.088,15.066,5.866L505.893,391.752z"/>
		<path fill="#4C4C4C" d="M541.479,401.397h-12.44v9.495h21.906v4.972h-27.457v-32.463h26.268v4.972h-20.717v8.054h12.44V401.397z"
			/>
		<path fill="#4C4C4C" d="M562.543,415.864v-32.463h15.513c5.848,0,9.119,1.641,11.895,4.325c2.875,2.982,4.411,7.159,4.411,11.882
			c0,4.871-1.686,9.296-4.758,12.279c-2.775,2.485-5.7,3.977-11.548,3.977H562.543z M577.808,410.892
			c4.114,0,5.501-0.944,7.435-2.535c2.081-2.088,3.32-5.27,3.32-8.749c0-3.381-1.09-6.413-3.122-8.501
			c-1.834-1.69-3.568-2.734-7.633-2.734h-9.714v22.52H577.808z"/>
		<path fill="#4C4C4C" d="M652.2,410.097c-3.469,3.479-8.921,6.761-15.958,6.761c-10.655,0-17.693-7.705-17.693-17.25
			c0-9.396,7.087-17.201,17.445-17.201c5.898,0,11.548,2.337,15.166,5.717l-3.767,3.729c-2.875-2.734-7.335-4.474-11.3-4.474
			c-7.087,0-11.696,5.567-11.696,12.279c0,6.761,4.708,12.229,11.944,12.229c5.055,0,9.367-2.486,12.142-5.469L652.2,410.097z"/>
		<path fill="#4C4C4C" d="M668.854,383.401v27.491h19.874v4.972h-25.425v-32.463H668.854z"/>
		<path fill="#4C4C4C" d="M713.906,382.407c10.209,0,18.337,7.656,18.337,17.151c0,9.645-8.128,17.3-18.337,17.3
			s-18.189-7.655-18.189-17.3C695.717,390.063,703.696,382.407,713.906,382.407z M713.906,411.887
			c6.988,0,12.489-5.568,12.489-12.329c0-6.712-5.501-12.18-12.489-12.18c-6.938,0-12.34,5.468-12.34,12.18
			C701.565,406.319,706.967,411.887,713.906,411.887z"/>
		<path fill="#4C4C4C" d="M772.24,383.401v20.93c0,8.004-6.146,12.527-14.373,12.527c-8.177,0-14.323-4.523-14.323-12.527v-20.93
			h5.551v20.93c0,4.872,3.866,7.557,8.772,7.557c4.956,0,8.822-2.685,8.822-7.557v-20.93H772.24z"/>
		<path fill="#4C4C4C" d="M786.466,415.864v-32.463h15.512c5.849,0,9.119,1.641,11.895,4.325c2.875,2.982,4.411,7.159,4.411,11.882
			c0,4.871-1.685,9.296-4.758,12.279c-2.775,2.485-5.699,3.977-11.548,3.977H786.466z M801.73,410.892
			c4.113,0,5.501-0.944,7.434-2.535c2.082-2.088,3.321-5.27,3.321-8.749c0-3.381-1.091-6.413-3.123-8.501
			c-1.834-1.69-3.568-2.734-7.632-2.734h-9.714v22.52H801.73z"/>
		<path fill="#4C4C4C" d="M868.241,391.007c-1.784-1.641-5.799-3.778-11.746-3.778c-3.865,0-7.285,1.243-7.285,4.673
			c0,3.53,4.808,3.679,9.714,4.027c5.799,0.397,14.918,0.994,14.918,10.042c0,7.854-6.542,10.887-14.273,10.887
			c-8.524,0-14.075-3.529-17.693-6.811l3.37-3.878c2.627,2.387,7.187,5.866,14.422,5.866c4.808,0,8.624-1.641,8.624-5.319
			c0-4.076-3.717-4.921-9.367-5.369c-7.137-0.497-15.265-1.094-15.265-8.948c0-7.705,7.088-9.992,13.035-9.992
			c6.839,0,12.34,2.685,14.917,4.723L868.241,391.007z"/>
		<path fill="#4C4C4C" d="M903.48,401.397h-12.439v9.495h21.905v4.972H885.49v-32.463h26.267v4.972h-20.716v8.054h12.439V401.397z"
			/>
		<path fill="#4C4C4C" d="M924.545,415.864v-32.463h17.842c4.312,0,7.285,1.193,9.366,3.431c1.636,1.739,2.578,4.026,2.578,6.512
			c0,4.375-2.875,7.706-7.137,9.297l7.73,13.224h-6.393l-6.938-12.478h-11.498v12.478H924.545z M930.096,388.373v10.042h13.282
			c2.924,0,5.402-2.287,5.402-5.071c0-1.242-0.496-2.336-1.339-3.23c-1.536-1.591-3.32-1.74-5.055-1.74H930.096z"/>
		<path fill="#4C4C4C" d="M997.599,383.401l-15.017,32.463h-5.055l-15.017-32.463h6.344l11.2,25.354h0.298l11.2-25.354H997.599z"/>
		<path fill="#4C4C4C" d="M1007.959,415.864v-32.463h5.551v32.463H1007.959z"/>
		<path fill="#4C4C4C" d="M1059.155,410.097c-3.469,3.479-8.92,6.761-15.958,6.761c-10.655,0-17.693-7.705-17.693-17.25
			c0-9.396,7.087-17.201,17.445-17.201c5.897,0,11.548,2.337,15.166,5.717l-3.767,3.729c-2.875-2.734-7.335-4.474-11.3-4.474
			c-7.087,0-11.696,5.567-11.696,12.279c0,6.761,4.708,12.229,11.943,12.229c5.056,0,9.367-2.486,12.143-5.469L1059.155,410.097z"/>
		<path fill="#4C4C4C" d="M1088.249,401.397h-12.439v9.495h21.905v4.972h-27.456v-32.463h26.267v4.972h-20.716v8.054h12.439V401.397
			z"/>
		<path fill="#4C4C4C" d="M1132.21,391.007c-1.784-1.641-5.799-3.778-11.746-3.778c-3.865,0-7.285,1.243-7.285,4.673
			c0,3.53,4.808,3.679,9.714,4.027c5.799,0.397,14.918,0.994,14.918,10.042c0,7.854-6.542,10.887-14.273,10.887
			c-8.524,0-14.075-3.529-17.693-6.811l3.37-3.878c2.627,2.387,7.187,5.866,14.422,5.866c4.808,0,8.624-1.641,8.624-5.319
			c0-4.076-3.717-4.921-9.367-5.369c-7.137-0.497-15.265-1.094-15.265-8.948c0-7.705,7.088-9.992,13.035-9.992
			c6.839,0,12.34,2.685,14.917,4.723L1132.21,391.007z"/>
	</g>
	<g>
		<path fill="#0C2D54" d="M170.345,145.224c8.442-0.701,16.921-0.973,25.401-0.677c11.957,0.472,23.994,2.409,35.166,6.933
			c6.215,2.671,12.482,5.306,18.23,8.939c19.054,11.722,33.604,30.042,42.881,50.453c17.626-1.497,35.943,2.439,51.042,12
			c5.957,3.725,11.2,8.487,15.859,13.751c11.031,11.513,16.789,27.463,17.758,43.329c0.473,7.309-0.006,14.697-1.47,21.886
			c-3.294,15.89-12.108,30.334-23.938,41.153c-13.08,11.956-29.948,19.932-47.562,21.323c0.958-9.44,2.593-18.822,4.621-28.081
			c7.284-3.002,14.694-5.942,21.207-10.507c3.489-2.408,6.66-5.347,9.185-8.804c1.821-2.634,3.682-5.252,5.118-8.128
			c6.727-13.331,7.482-29.715,1.596-43.487c-3.097-7.309-8.303-13.691-14.896-18.008c-6.578-4.91-14.641-7.43-22.71-8.205
			c-12.334-1.273-24.642,0.692-36.978,0.6c-2.66-11.874-6.62-23.622-13.126-33.931c-3.577-5.635-7.916-10.806-13.066-15.024
			c-4.74-3.793-9.743-7.322-15.222-9.943c-15.331-7.512-32.797-9.29-49.585-8.09c-24.312-0.284-47.84,15.035-58.414,37.149
			c-2.687,5.671-4.504,11.764-5.255,18.009c-0.56,10.604-1.365,21.46,1.281,31.889c1.818,6.9,4.66,13.543,8.706,19.405
			c8.72,12.644,21.815,21.637,35.856,27.163c1.696-1.055,3.19-2.493,4.987-3.416c10.692-6.359,24.927-5.878,35.11,1.318
			c7.632,5.194,12.859,13.991,13.418,23.349c0.815,9.853-3.638,19.894-11.237,26.034c-8.196,6.905-19.798,9.114-29.975,6.116
			c-10.056-2.84-18.616-10.981-21.591-21.195c-0.734-2.294-1.04-4.704-1.289-7.09c-5.413-2.583-11.056-4.719-16.251-7.756
			c-10.141-5.783-19.202-13.491-26.655-22.536c-9.713-11.828-16.692-26.103-19.294-41.324c-1.159-6.419-1.152-12.932-1.354-19.421
			c-0.003-11.061,0.959-22.328,4.788-32.778c2.326-6.122,4.971-12.138,8.421-17.697
			C116.046,165.509,142.314,148.835,170.345,145.224z M180.035,318.191c-4.591,1.241-8.162,5.75-8.135,10.608
			c-0.132,3.663,1.75,7.298,4.722,9.354c3.651,2.676,8.912,2.759,12.663,0.244c2.722-1.738,4.646-4.751,5.006-8.011
			c0.564-4.079-1.378-8.32-4.72-10.612C186.822,317.842,183.243,317.301,180.035,318.191z"/>
	</g>
	<g>
		<g>
			<g>
				<path fill="#2392CF" d="M12.355,257.65c12.22-25.438,38.12-43.573,65.935-45.912c-1.064,9.444-2.652,18.83-4.659,28.113
					c-7.107,2.921-14.314,5.802-20.725,10.149c-4.303,2.924-8.151,6.615-10.97,11.043c-7.167,9.879-10.276,22.522-9.198,34.684
					c0.784,8.701,3.772,17.3,9.108,24.216c3.708,4.915,8.707,8.621,13.96,11.685c9.063,5.011,19.679,6.039,29.81,5.749
					c8.502-0.054,16.959-1.093,25.465-0.999c3.011,13.577,7.801,27.022,16.078,38.263c3.853,5.173,8.446,9.797,13.722,13.467
					c9.179,7.085,20.141,11.552,31.424,13.732c8.354,1.659,16.895,2.12,25.376,1.809c3.07-0.265,6.159-0.227,9.238-0.398
					c16.542-1.217,32.306-9.464,43.424-21.854c8.842-9.856,14.908-22.636,15.6-36.052c0.398-8.622,0.852-17.337-0.77-25.874
					c-1.882-9.267-5.778-18.15-11.613-25.552c-8.288-10.636-19.758-18.358-32.024-23.509c-3.606,2.513-7.572,4.602-11.866,5.573
					c-11.778,3.03-25.113-1.113-32.884-10.664c-3.945-4.726-6.437-10.69-6.971-16.862c-0.639-6.888,1.111-13.979,4.938-19.711
					c6.283-9.695,17.995-15.238,29.344-14.277c6.868,0.422,13.597,3.135,18.845,7.662c6.912,5.807,11.131,14.852,10.9,23.987
					c3.391,1.702,6.953,3.075,10.314,4.874c17.997,9.558,32.971,25.028,41.699,43.674c4.133,8.795,6.811,18.331,7.675,28.052
					c0.458,7.397,0.658,14.845,0.245,22.257c-0.544,9.514-2.352,19.057-6.239,27.771c-8.353,21.203-25.129,38.45-45.153,48.595
					c-11.891,5.941-24.978,9.729-38.274,10.02c-8.867,0.441-17.788,0.473-26.631-0.434c-10.726-1.102-21.371-3.688-31.139-8.378
					c-20.235-8.177-36.967-23.834-48.443-42.425c-3.001-4.76-5.575-9.769-7.948-14.867c-19.077,1.537-38.949-3.109-54.647-14.464
					c-4.199-3.059-8.082-6.561-11.485-10.5c-11.161-11.166-17.16-26.823-18.443-42.506C4.245,284.103,6.343,270.022,12.355,257.65z
					 M199.887,233.779c-3.25,0.383-6.253,2.315-8.021,5.095c-2.021,3.126-2.336,7.317-0.738,10.696
					c1.415,3.168,4.374,5.573,7.719,6.287c3.222,0.76,6.745-0.014,9.37-2.032c2.723-2.08,4.494-5.502,4.349-8.993
					c0.091-3.073-1.331-6.109-3.554-8.175C206.593,234.382,203.14,233.335,199.887,233.779z"/>
			</g>
		</g>
	</g>
</g>
<g id="White" display="none">
	<g display="inline">
		<path fill="#FFFFFF" d="M496.558,255.614l-26.644,8.942c-3.585-10.613-11.175-15.919-22.771-15.919
			c-12.379,0-18.567,4.029-18.567,12.086c0,3.211,1.157,5.93,3.473,8.156c2.314,2.228,7.547,4.163,15.699,5.804
			c13.628,2.759,23.605,5.547,29.933,8.363c6.326,2.816,11.657,7.352,15.994,13.607c4.338,6.255,6.506,13.246,6.506,20.975
			c0,12.118-4.65,22.597-13.946,31.439c-9.298,8.842-23.081,13.263-41.35,13.263c-13.702,0-25.364-3.128-34.989-9.384
			c-9.624-6.256-15.968-15.542-19.034-27.859l28.995-6.583c3.259,12.513,12.318,18.769,27.177,18.769
			c7.169,0,12.512-1.391,16.033-4.176c3.519-2.784,5.279-6.108,5.279-9.974c0-3.93-1.598-6.977-4.794-9.139
			c-3.196-2.162-9.357-4.193-18.486-6.095c-17.021-3.541-29.151-8.374-36.391-14.499c-7.24-6.125-10.858-15.082-10.858-26.872
			c0-11.921,4.321-21.977,12.965-30.165c8.645-8.187,20.372-12.282,35.182-12.282C472.19,224.07,489.055,234.585,496.558,255.614z"
			/>
		<path fill="#FFFFFF" d="M551.413,226.134v63.019l41.919-63.019h29.98l-32.114,47.889l40.146,86.243h-34.491l-26.681-58.249
			l-18.76,27.492v30.757h-30.758V226.134H551.413z"/>
		<path fill="#FFFFFF" d="M743.603,226.134l-42.023,77.63v56.502h-31.248v-56.502l-42.023-77.63h36.339l25.491,50.788l25.375-50.788
			H743.603z"/>
		<path fill="#FFFFFF" d="M843.125,255.614l-26.644,8.942c-3.585-10.613-11.175-15.919-22.771-15.919
			c-12.379,0-18.567,4.029-18.567,12.086c0,3.211,1.157,5.93,3.474,8.156c2.313,2.228,7.547,4.163,15.698,5.804
			c13.628,2.759,23.606,5.547,29.934,8.363c6.325,2.816,11.656,7.352,15.994,13.607c4.338,6.255,6.507,13.246,6.507,20.975
			c0,12.118-4.65,22.597-13.947,31.439c-9.298,8.842-23.08,13.263-41.35,13.263c-13.701,0-25.364-3.128-34.988-9.384
			s-15.968-15.542-19.034-27.859l28.995-6.583c3.259,12.513,12.318,18.769,27.177,18.769c7.169,0,12.513-1.391,16.032-4.176
			c3.52-2.784,5.279-6.108,5.279-9.974c0-3.93-1.598-6.977-4.794-9.139c-3.195-2.162-9.357-4.193-18.486-6.095
			c-17.021-3.541-29.15-8.374-36.391-14.499c-7.239-6.125-10.857-15.082-10.857-26.872c0-11.921,4.321-21.977,12.966-30.165
			c8.645-8.187,20.371-12.282,35.181-12.282C818.757,224.07,835.622,234.585,843.125,255.614z"/>
		<path fill="#FFFFFF" d="M898.471,226.134v134.132h-31.248V226.134H898.471z"/>
		<path fill="#FFFFFF" d="M957.048,333.734h53.19v26.532h-84.928V226.134h31.737V333.734z"/>
		<path fill="#FFFFFF" d="M1057.061,226.134v63.019l41.919-63.019h29.98l-32.113,47.889l40.146,86.243h-34.491l-26.681-58.249
			l-18.761,27.492v30.757h-30.758V226.134H1057.061z"/>
	</g>
	<g display="inline">
		<path fill="#FFFFFF" d="M333.613,415.864v-22.072h-0.248l-10.754,18.194h-0.892l-10.755-18.194h-0.248v22.072h-5.303v-32.463h5.7
			l11.25,19.14h0.099l11.25-19.14h5.452v32.463H333.613z"/>
		<path fill="#FFFFFF" d="M364.641,383.401h5.055l15.017,32.463h-6.096l-3.915-8.75h-15.413l-3.866,8.75h-5.798L364.641,383.401z
			 M361.271,402.64h11.448l-5.551-12.577h-0.297L361.271,402.64z"/>
		<path fill="#FFFFFF" d="M424.362,383.401v32.463h-4.906l-18.685-22.521h-0.05v22.521h-5.551v-32.463h4.907l18.684,22.521h0.05
			v-22.521H424.362z"/>
		<path fill="#FFFFFF" d="M449.838,383.401h5.055l15.017,32.463h-6.096l-3.915-8.75h-15.413l-3.866,8.75h-5.798L449.838,383.401z
			 M446.468,402.64h11.448l-5.551-12.577h-0.297L446.468,402.64z"/>
		<path fill="#FFFFFF" d="M505.893,391.752c-2.726-2.733-7.335-4.374-11.151-4.374c-6.988,0-11.895,5.567-11.895,12.279
			c0,6.264,4.262,12.229,12.44,12.229c3.37,0,7.335-0.995,9.516-2.636v-6.512h-10.16v-4.972h15.215v14.218
			c-4.063,2.983-9.813,4.872-14.917,4.872c-10.259,0-17.891-7.705-17.891-17.25s7.731-17.201,17.644-17.201
			c5.154,0,10.655,2.088,15.066,5.866L505.893,391.752z"/>
		<path fill="#FFFFFF" d="M541.479,401.397h-12.44v9.495h21.906v4.972h-27.457v-32.463h26.268v4.972h-20.717v8.054h12.44V401.397z"
			/>
		<path fill="#FFFFFF" d="M562.543,415.864v-32.463h15.513c5.848,0,9.119,1.641,11.895,4.325c2.875,2.982,4.411,7.159,4.411,11.882
			c0,4.871-1.686,9.296-4.758,12.279c-2.775,2.485-5.7,3.977-11.548,3.977H562.543z M577.808,410.892
			c4.114,0,5.501-0.944,7.435-2.535c2.081-2.088,3.32-5.27,3.32-8.749c0-3.381-1.09-6.413-3.122-8.501
			c-1.834-1.69-3.568-2.734-7.633-2.734h-9.714v22.52H577.808z"/>
		<path fill="#FFFFFF" d="M652.2,410.097c-3.469,3.479-8.921,6.761-15.958,6.761c-10.655,0-17.693-7.705-17.693-17.25
			c0-9.396,7.087-17.201,17.445-17.201c5.898,0,11.548,2.337,15.166,5.717l-3.767,3.729c-2.875-2.734-7.335-4.474-11.3-4.474
			c-7.087,0-11.696,5.567-11.696,12.279c0,6.761,4.708,12.229,11.944,12.229c5.055,0,9.367-2.486,12.142-5.469L652.2,410.097z"/>
		<path fill="#FFFFFF" d="M668.854,383.401v27.491h19.874v4.972h-25.425v-32.463H668.854z"/>
		<path fill="#FFFFFF" d="M713.906,382.407c10.209,0,18.337,7.656,18.337,17.151c0,9.645-8.128,17.3-18.337,17.3
			s-18.189-7.655-18.189-17.3C695.717,390.063,703.696,382.407,713.906,382.407z M713.906,411.887
			c6.988,0,12.489-5.568,12.489-12.329c0-6.712-5.501-12.18-12.489-12.18c-6.938,0-12.34,5.468-12.34,12.18
			C701.565,406.319,706.967,411.887,713.906,411.887z"/>
		<path fill="#FFFFFF" d="M772.24,383.401v20.93c0,8.004-6.146,12.527-14.373,12.527c-8.177,0-14.323-4.523-14.323-12.527v-20.93
			h5.551v20.93c0,4.872,3.866,7.557,8.772,7.557c4.956,0,8.822-2.685,8.822-7.557v-20.93H772.24z"/>
		<path fill="#FFFFFF" d="M786.466,415.864v-32.463h15.512c5.849,0,9.119,1.641,11.895,4.325c2.875,2.982,4.411,7.159,4.411,11.882
			c0,4.871-1.685,9.296-4.758,12.279c-2.775,2.485-5.699,3.977-11.548,3.977H786.466z M801.73,410.892
			c4.113,0,5.501-0.944,7.434-2.535c2.082-2.088,3.321-5.27,3.321-8.749c0-3.381-1.091-6.413-3.123-8.501
			c-1.834-1.69-3.568-2.734-7.632-2.734h-9.714v22.52H801.73z"/>
		<path fill="#FFFFFF" d="M868.241,391.007c-1.784-1.641-5.799-3.778-11.746-3.778c-3.865,0-7.285,1.243-7.285,4.673
			c0,3.53,4.808,3.679,9.714,4.027c5.799,0.397,14.918,0.994,14.918,10.042c0,7.854-6.542,10.887-14.273,10.887
			c-8.524,0-14.075-3.529-17.693-6.811l3.37-3.878c2.627,2.387,7.187,5.866,14.422,5.866c4.808,0,8.624-1.641,8.624-5.319
			c0-4.076-3.717-4.921-9.367-5.369c-7.137-0.497-15.265-1.094-15.265-8.948c0-7.705,7.088-9.992,13.035-9.992
			c6.839,0,12.34,2.685,14.917,4.723L868.241,391.007z"/>
		<path fill="#FFFFFF" d="M903.48,401.397h-12.439v9.495h21.905v4.972H885.49v-32.463h26.267v4.972h-20.716v8.054h12.439V401.397z"
			/>
		<path fill="#FFFFFF" d="M924.545,415.864v-32.463h17.842c4.312,0,7.285,1.193,9.366,3.431c1.636,1.739,2.578,4.026,2.578,6.512
			c0,4.375-2.875,7.706-7.137,9.297l7.73,13.224h-6.393l-6.938-12.478h-11.498v12.478H924.545z M930.096,388.373v10.042h13.282
			c2.924,0,5.402-2.287,5.402-5.071c0-1.242-0.496-2.336-1.339-3.23c-1.536-1.591-3.32-1.74-5.055-1.74H930.096z"/>
		<path fill="#FFFFFF" d="M997.599,383.401l-15.017,32.463h-5.055l-15.017-32.463h6.344l11.2,25.354h0.298l11.2-25.354H997.599z"/>
		<path fill="#FFFFFF" d="M1007.959,415.864v-32.463h5.551v32.463H1007.959z"/>
		<path fill="#FFFFFF" d="M1059.155,410.097c-3.469,3.479-8.92,6.761-15.958,6.761c-10.655,0-17.693-7.705-17.693-17.25
			c0-9.396,7.087-17.201,17.445-17.201c5.897,0,11.548,2.337,15.166,5.717l-3.767,3.729c-2.875-2.734-7.335-4.474-11.3-4.474
			c-7.087,0-11.696,5.567-11.696,12.279c0,6.761,4.708,12.229,11.943,12.229c5.056,0,9.367-2.486,12.143-5.469L1059.155,410.097z"/>
		<path fill="#FFFFFF" d="M1088.249,401.397h-12.439v9.495h21.905v4.972h-27.456v-32.463h26.267v4.972h-20.716v8.054h12.439V401.397
			z"/>
		<path fill="#FFFFFF" d="M1132.21,391.007c-1.784-1.641-5.799-3.778-11.746-3.778c-3.865,0-7.285,1.243-7.285,4.673
			c0,3.53,4.808,3.679,9.714,4.027c5.799,0.397,14.918,0.994,14.918,10.042c0,7.854-6.542,10.887-14.273,10.887
			c-8.524,0-14.075-3.529-17.693-6.811l3.37-3.878c2.627,2.387,7.187,5.866,14.422,5.866c4.808,0,8.624-1.641,8.624-5.319
			c0-4.076-3.717-4.921-9.367-5.369c-7.137-0.497-15.265-1.094-15.265-8.948c0-7.705,7.088-9.992,13.035-9.992
			c6.839,0,12.34,2.685,14.917,4.723L1132.21,391.007z"/>
	</g>
	<g display="inline">
		<path fill="#FFFFFF" d="M170.345,145.224c8.442-0.701,16.921-0.973,25.401-0.677c11.957,0.472,23.994,2.409,35.166,6.933
			c6.215,2.671,12.482,5.306,18.23,8.939c19.054,11.722,33.604,30.042,42.881,50.453c17.626-1.497,35.943,2.439,51.042,12
			c5.957,3.725,11.2,8.487,15.859,13.751c11.031,11.513,16.789,27.463,17.758,43.329c0.473,7.309-0.006,14.697-1.47,21.886
			c-3.294,15.89-12.108,30.334-23.938,41.153c-13.08,11.956-29.948,19.932-47.562,21.323c0.958-9.44,2.593-18.822,4.621-28.081
			c7.284-3.002,14.694-5.942,21.207-10.507c3.489-2.408,6.66-5.347,9.185-8.804c1.821-2.634,3.682-5.252,5.118-8.128
			c6.727-13.331,7.482-29.715,1.596-43.487c-3.097-7.309-8.303-13.691-14.896-18.008c-6.578-4.91-14.641-7.43-22.71-8.205
			c-12.334-1.273-24.642,0.692-36.978,0.6c-2.66-11.874-6.62-23.622-13.126-33.931c-3.577-5.635-7.916-10.806-13.066-15.024
			c-4.74-3.793-9.743-7.322-15.222-9.943c-15.331-7.512-32.797-9.29-49.585-8.09c-24.312-0.284-47.84,15.035-58.414,37.149
			c-2.687,5.671-4.504,11.764-5.255,18.009c-0.56,10.604-1.365,21.46,1.281,31.889c1.818,6.9,4.66,13.543,8.706,19.405
			c8.72,12.644,21.815,21.637,35.856,27.163c1.696-1.055,3.19-2.493,4.987-3.416c10.692-6.359,24.927-5.878,35.11,1.318
			c7.632,5.194,12.859,13.991,13.418,23.349c0.815,9.853-3.638,19.894-11.237,26.034c-8.196,6.905-19.798,9.114-29.975,6.116
			c-10.056-2.84-18.616-10.981-21.591-21.195c-0.734-2.294-1.04-4.704-1.289-7.09c-5.413-2.583-11.056-4.719-16.251-7.756
			c-10.141-5.783-19.202-13.491-26.655-22.536c-9.713-11.828-16.692-26.103-19.294-41.324c-1.159-6.419-1.152-12.932-1.354-19.421
			c-0.003-11.061,0.959-22.328,4.788-32.778c2.326-6.122,4.971-12.138,8.421-17.697
			C116.046,165.509,142.314,148.835,170.345,145.224z M180.035,318.191c-4.591,1.241-8.162,5.75-8.135,10.608
			c-0.132,3.663,1.75,7.298,4.722,9.354c3.651,2.676,8.912,2.759,12.663,0.244c2.722-1.738,4.646-4.751,5.006-8.011
			c0.564-4.079-1.378-8.32-4.72-10.612C186.822,317.842,183.243,317.301,180.035,318.191z"/>
	</g>
	<g display="inline">
		<g>
			<g>
				<path fill="#FFFFFF" d="M12.355,257.65c12.22-25.438,38.12-43.573,65.935-45.912c-1.064,9.444-2.652,18.83-4.659,28.113
					c-7.107,2.921-14.314,5.802-20.725,10.149c-4.303,2.924-8.151,6.615-10.97,11.043c-7.167,9.879-10.276,22.522-9.198,34.684
					c0.784,8.701,3.772,17.3,9.108,24.216c3.708,4.915,8.707,8.621,13.96,11.685c9.063,5.011,19.679,6.039,29.81,5.749
					c8.502-0.054,16.959-1.093,25.465-0.999c3.011,13.577,7.801,27.022,16.078,38.263c3.853,5.173,8.446,9.797,13.722,13.467
					c9.179,7.085,20.141,11.552,31.424,13.732c8.354,1.659,16.895,2.12,25.376,1.809c3.07-0.265,6.159-0.227,9.238-0.398
					c16.542-1.217,32.306-9.464,43.424-21.854c8.842-9.856,14.908-22.636,15.6-36.052c0.398-8.622,0.852-17.337-0.77-25.874
					c-1.882-9.267-5.778-18.15-11.613-25.552c-8.288-10.636-19.758-18.358-32.024-23.509c-3.606,2.513-7.572,4.602-11.866,5.573
					c-11.778,3.03-25.113-1.113-32.884-10.664c-3.945-4.726-6.437-10.69-6.971-16.862c-0.639-6.888,1.111-13.979,4.938-19.711
					c6.283-9.695,17.995-15.238,29.344-14.277c6.868,0.422,13.597,3.135,18.845,7.662c6.912,5.807,11.131,14.852,10.9,23.987
					c3.391,1.702,6.953,3.075,10.314,4.874c17.997,9.558,32.971,25.028,41.699,43.674c4.133,8.795,6.811,18.331,7.675,28.052
					c0.458,7.397,0.658,14.845,0.245,22.257c-0.544,9.514-2.352,19.057-6.239,27.771c-8.353,21.203-25.129,38.45-45.153,48.595
					c-11.891,5.941-24.978,9.729-38.274,10.02c-8.867,0.441-17.788,0.473-26.631-0.434c-10.726-1.102-21.371-3.688-31.139-8.378
					c-20.235-8.177-36.967-23.834-48.443-42.425c-3.001-4.76-5.575-9.769-7.948-14.867c-19.077,1.537-38.949-3.109-54.647-14.464
					c-4.199-3.059-8.082-6.561-11.485-10.5c-11.161-11.166-17.16-26.823-18.443-42.506C4.245,284.103,6.343,270.022,12.355,257.65z
					 M199.887,233.779c-3.25,0.383-6.253,2.315-8.021,5.095c-2.021,3.126-2.336,7.317-0.738,10.696
					c1.415,3.168,4.374,5.573,7.719,6.287c3.222,0.76,6.745-0.014,9.37-2.032c2.723-2.08,4.494-5.502,4.349-8.993
					c0.091-3.073-1.331-6.109-3.554-8.175C206.593,234.382,203.14,233.335,199.887,233.779z"/>
			</g>
		</g>
	</g>
</g>
<g id="Black" display="none">
	<g display="inline">
		<path d="M496.558,255.614l-26.644,8.942c-3.585-10.613-11.175-15.919-22.771-15.919c-12.379,0-18.567,4.029-18.567,12.086
			c0,3.211,1.157,5.93,3.473,8.156c2.314,2.228,7.547,4.163,15.699,5.804c13.628,2.759,23.605,5.547,29.933,8.363
			c6.326,2.816,11.657,7.352,15.994,13.607c4.338,6.255,6.506,13.246,6.506,20.975c0,12.118-4.65,22.597-13.946,31.439
			c-9.298,8.842-23.081,13.263-41.35,13.263c-13.702,0-25.364-3.128-34.989-9.384c-9.624-6.256-15.968-15.542-19.034-27.859
			l28.995-6.583c3.259,12.513,12.318,18.769,27.177,18.769c7.169,0,12.512-1.391,16.033-4.176c3.519-2.784,5.279-6.108,5.279-9.974
			c0-3.93-1.598-6.977-4.794-9.139c-3.196-2.162-9.357-4.193-18.486-6.095c-17.021-3.541-29.151-8.374-36.391-14.499
			c-7.24-6.125-10.858-15.082-10.858-26.872c0-11.921,4.321-21.977,12.965-30.165c8.645-8.187,20.372-12.282,35.182-12.282
			C472.19,224.07,489.055,234.585,496.558,255.614z"/>
		<path d="M551.413,226.134v63.019l41.919-63.019h29.98l-32.114,47.889l40.146,86.243h-34.491l-26.681-58.249l-18.76,27.492v30.757
			h-30.758V226.134H551.413z"/>
		<path d="M743.603,226.134l-42.023,77.63v56.502h-31.248v-56.502l-42.023-77.63h36.339l25.491,50.788l25.375-50.788H743.603z"/>
		<path d="M843.125,255.614l-26.644,8.942c-3.585-10.613-11.175-15.919-22.771-15.919c-12.379,0-18.567,4.029-18.567,12.086
			c0,3.211,1.157,5.93,3.474,8.156c2.313,2.228,7.547,4.163,15.698,5.804c13.628,2.759,23.606,5.547,29.934,8.363
			c6.325,2.816,11.656,7.352,15.994,13.607c4.338,6.255,6.507,13.246,6.507,20.975c0,12.118-4.65,22.597-13.947,31.439
			c-9.298,8.842-23.08,13.263-41.35,13.263c-13.701,0-25.364-3.128-34.988-9.384s-15.968-15.542-19.034-27.859l28.995-6.583
			c3.259,12.513,12.318,18.769,27.177,18.769c7.169,0,12.513-1.391,16.032-4.176c3.52-2.784,5.279-6.108,5.279-9.974
			c0-3.93-1.598-6.977-4.794-9.139c-3.195-2.162-9.357-4.193-18.486-6.095c-17.021-3.541-29.15-8.374-36.391-14.499
			c-7.239-6.125-10.857-15.082-10.857-26.872c0-11.921,4.321-21.977,12.966-30.165c8.645-8.187,20.371-12.282,35.181-12.282
			C818.757,224.07,835.622,234.585,843.125,255.614z"/>
		<path d="M898.471,226.134v134.132h-31.248V226.134H898.471z"/>
		<path d="M957.048,333.734h53.19v26.532h-84.928V226.134h31.737V333.734z"/>
		<path d="M1057.061,226.134v63.019l41.919-63.019h29.98l-32.113,47.889l40.146,86.243h-34.491l-26.681-58.249l-18.761,27.492
			v30.757h-30.758V226.134H1057.061z"/>
	</g>
	<g display="inline">
		<path d="M333.613,415.864v-22.072h-0.248l-10.754,18.194h-0.892l-10.755-18.194h-0.248v22.072h-5.303v-32.463h5.7l11.25,19.14
			h0.099l11.25-19.14h5.452v32.463H333.613z"/>
		<path d="M364.641,383.401h5.055l15.017,32.463h-6.096l-3.915-8.75h-15.413l-3.866,8.75h-5.798L364.641,383.401z M361.271,402.64
			h11.448l-5.551-12.577h-0.297L361.271,402.64z"/>
		<path d="M424.362,383.401v32.463h-4.906l-18.685-22.521h-0.05v22.521h-5.551v-32.463h4.907l18.684,22.521h0.05v-22.521H424.362z"
			/>
		<path d="M449.838,383.401h5.055l15.017,32.463h-6.096l-3.915-8.75h-15.413l-3.866,8.75h-5.798L449.838,383.401z M446.468,402.64
			h11.448l-5.551-12.577h-0.297L446.468,402.64z"/>
		<path d="M505.893,391.752c-2.726-2.733-7.335-4.374-11.151-4.374c-6.988,0-11.895,5.567-11.895,12.279
			c0,6.264,4.262,12.229,12.44,12.229c3.37,0,7.335-0.995,9.516-2.636v-6.512h-10.16v-4.972h15.215v14.218
			c-4.063,2.983-9.813,4.872-14.917,4.872c-10.259,0-17.891-7.705-17.891-17.25s7.731-17.201,17.644-17.201
			c5.154,0,10.655,2.088,15.066,5.866L505.893,391.752z"/>
		<path d="M541.479,401.397h-12.44v9.495h21.906v4.972h-27.457v-32.463h26.268v4.972h-20.717v8.054h12.44V401.397z"/>
		<path d="M562.543,415.864v-32.463h15.513c5.848,0,9.119,1.641,11.895,4.325c2.875,2.982,4.411,7.159,4.411,11.882
			c0,4.871-1.686,9.296-4.758,12.279c-2.775,2.485-5.7,3.977-11.548,3.977H562.543z M577.808,410.892
			c4.114,0,5.501-0.944,7.435-2.535c2.081-2.088,3.32-5.27,3.32-8.749c0-3.381-1.09-6.413-3.122-8.501
			c-1.834-1.69-3.568-2.734-7.633-2.734h-9.714v22.52H577.808z"/>
		<path d="M652.2,410.097c-3.469,3.479-8.921,6.761-15.958,6.761c-10.655,0-17.693-7.705-17.693-17.25
			c0-9.396,7.087-17.201,17.445-17.201c5.898,0,11.548,2.337,15.166,5.717l-3.767,3.729c-2.875-2.734-7.335-4.474-11.3-4.474
			c-7.087,0-11.696,5.567-11.696,12.279c0,6.761,4.708,12.229,11.944,12.229c5.055,0,9.367-2.486,12.142-5.469L652.2,410.097z"/>
		<path d="M668.854,383.401v27.491h19.874v4.972h-25.425v-32.463H668.854z"/>
		<path d="M713.906,382.407c10.209,0,18.337,7.656,18.337,17.151c0,9.645-8.128,17.3-18.337,17.3s-18.189-7.655-18.189-17.3
			C695.717,390.063,703.696,382.407,713.906,382.407z M713.906,411.887c6.988,0,12.489-5.568,12.489-12.329
			c0-6.712-5.501-12.18-12.489-12.18c-6.938,0-12.34,5.468-12.34,12.18C701.565,406.319,706.967,411.887,713.906,411.887z"/>
		<path d="M772.24,383.401v20.93c0,8.004-6.146,12.527-14.373,12.527c-8.177,0-14.323-4.523-14.323-12.527v-20.93h5.551v20.93
			c0,4.872,3.866,7.557,8.772,7.557c4.956,0,8.822-2.685,8.822-7.557v-20.93H772.24z"/>
		<path d="M786.466,415.864v-32.463h15.512c5.849,0,9.119,1.641,11.895,4.325c2.875,2.982,4.411,7.159,4.411,11.882
			c0,4.871-1.685,9.296-4.758,12.279c-2.775,2.485-5.699,3.977-11.548,3.977H786.466z M801.73,410.892
			c4.113,0,5.501-0.944,7.434-2.535c2.082-2.088,3.321-5.27,3.321-8.749c0-3.381-1.091-6.413-3.123-8.501
			c-1.834-1.69-3.568-2.734-7.632-2.734h-9.714v22.52H801.73z"/>
		<path d="M868.241,391.007c-1.784-1.641-5.799-3.778-11.746-3.778c-3.865,0-7.285,1.243-7.285,4.673
			c0,3.53,4.808,3.679,9.714,4.027c5.799,0.397,14.918,0.994,14.918,10.042c0,7.854-6.542,10.887-14.273,10.887
			c-8.524,0-14.075-3.529-17.693-6.811l3.37-3.878c2.627,2.387,7.187,5.866,14.422,5.866c4.808,0,8.624-1.641,8.624-5.319
			c0-4.076-3.717-4.921-9.367-5.369c-7.137-0.497-15.265-1.094-15.265-8.948c0-7.705,7.088-9.992,13.035-9.992
			c6.839,0,12.34,2.685,14.917,4.723L868.241,391.007z"/>
		<path d="M903.48,401.397h-12.439v9.495h21.905v4.972H885.49v-32.463h26.267v4.972h-20.716v8.054h12.439V401.397z"/>
		<path d="M924.545,415.864v-32.463h17.842c4.312,0,7.285,1.193,9.366,3.431c1.636,1.739,2.578,4.026,2.578,6.512
			c0,4.375-2.875,7.706-7.137,9.297l7.73,13.224h-6.393l-6.938-12.478h-11.498v12.478H924.545z M930.096,388.373v10.042h13.282
			c2.924,0,5.402-2.287,5.402-5.071c0-1.242-0.496-2.336-1.339-3.23c-1.536-1.591-3.32-1.74-5.055-1.74H930.096z"/>
		<path d="M997.599,383.401l-15.017,32.463h-5.055l-15.017-32.463h6.344l11.2,25.354h0.298l11.2-25.354H997.599z"/>
		<path d="M1007.959,415.864v-32.463h5.551v32.463H1007.959z"/>
		<path d="M1059.155,410.097c-3.469,3.479-8.92,6.761-15.958,6.761c-10.655,0-17.693-7.705-17.693-17.25
			c0-9.396,7.087-17.201,17.445-17.201c5.897,0,11.548,2.337,15.166,5.717l-3.767,3.729c-2.875-2.734-7.335-4.474-11.3-4.474
			c-7.087,0-11.696,5.567-11.696,12.279c0,6.761,4.708,12.229,11.943,12.229c5.056,0,9.367-2.486,12.143-5.469L1059.155,410.097z"/>
		<path d="M1088.249,401.397h-12.439v9.495h21.905v4.972h-27.456v-32.463h26.267v4.972h-20.716v8.054h12.439V401.397z"/>
		<path d="M1132.21,391.007c-1.784-1.641-5.799-3.778-11.746-3.778c-3.865,0-7.285,1.243-7.285,4.673
			c0,3.53,4.808,3.679,9.714,4.027c5.799,0.397,14.918,0.994,14.918,10.042c0,7.854-6.542,10.887-14.273,10.887
			c-8.524,0-14.075-3.529-17.693-6.811l3.37-3.878c2.627,2.387,7.187,5.866,14.422,5.866c4.808,0,8.624-1.641,8.624-5.319
			c0-4.076-3.717-4.921-9.367-5.369c-7.137-0.497-15.265-1.094-15.265-8.948c0-7.705,7.088-9.992,13.035-9.992
			c6.839,0,12.34,2.685,14.917,4.723L1132.21,391.007z"/>
	</g>
	<g display="inline">
		<path d="M170.345,145.224c8.442-0.701,16.921-0.973,25.401-0.677c11.957,0.472,23.994,2.409,35.166,6.933
			c6.215,2.671,12.482,5.306,18.23,8.939c19.054,11.722,33.604,30.042,42.881,50.453c17.626-1.497,35.943,2.439,51.042,12
			c5.957,3.725,11.2,8.487,15.859,13.751c11.031,11.513,16.789,27.463,17.758,43.329c0.473,7.309-0.006,14.697-1.47,21.886
			c-3.294,15.89-12.108,30.334-23.938,41.153c-13.08,11.956-29.948,19.932-47.562,21.323c0.958-9.44,2.593-18.822,4.621-28.081
			c7.284-3.002,14.694-5.942,21.207-10.507c3.489-2.408,6.66-5.347,9.185-8.804c1.821-2.634,3.682-5.252,5.118-8.128
			c6.727-13.331,7.482-29.715,1.596-43.487c-3.097-7.309-8.303-13.691-14.896-18.008c-6.578-4.91-14.641-7.43-22.71-8.205
			c-12.334-1.273-24.642,0.692-36.978,0.6c-2.66-11.874-6.62-23.622-13.126-33.931c-3.577-5.635-7.916-10.806-13.066-15.024
			c-4.74-3.793-9.743-7.322-15.222-9.943c-15.331-7.512-32.797-9.29-49.585-8.09c-24.312-0.284-47.84,15.035-58.414,37.149
			c-2.687,5.671-4.504,11.764-5.255,18.009c-0.56,10.604-1.365,21.46,1.281,31.889c1.818,6.9,4.66,13.543,8.706,19.405
			c8.72,12.644,21.815,21.637,35.856,27.163c1.696-1.055,3.19-2.493,4.987-3.416c10.692-6.359,24.927-5.878,35.11,1.318
			c7.632,5.194,12.859,13.991,13.418,23.349c0.815,9.853-3.638,19.894-11.237,26.034c-8.196,6.905-19.798,9.114-29.975,6.116
			c-10.056-2.84-18.616-10.981-21.591-21.195c-0.734-2.294-1.04-4.704-1.289-7.09c-5.413-2.583-11.056-4.719-16.251-7.756
			c-10.141-5.783-19.202-13.491-26.655-22.536c-9.713-11.828-16.692-26.103-19.294-41.324c-1.159-6.419-1.152-12.932-1.354-19.421
			c-0.003-11.061,0.959-22.328,4.788-32.778c2.326-6.122,4.971-12.138,8.421-17.697
			C116.046,165.509,142.314,148.835,170.345,145.224z M180.035,318.191c-4.591,1.241-8.162,5.75-8.135,10.608
			c-0.132,3.663,1.75,7.298,4.722,9.354c3.651,2.676,8.912,2.759,12.663,0.244c2.722-1.738,4.646-4.751,5.006-8.011
			c0.564-4.079-1.378-8.32-4.72-10.612C186.822,317.842,183.243,317.301,180.035,318.191z"/>
	</g>
	<g display="inline">
		<g>
			<g>
				<path d="M12.355,257.65c12.22-25.438,38.12-43.573,65.935-45.912c-1.064,9.444-2.652,18.83-4.659,28.113
					c-7.107,2.921-14.314,5.802-20.725,10.149c-4.303,2.924-8.151,6.615-10.97,11.043c-7.167,9.879-10.276,22.522-9.198,34.684
					c0.784,8.701,3.772,17.3,9.108,24.216c3.708,4.915,8.707,8.621,13.96,11.685c9.063,5.011,19.679,6.039,29.81,5.749
					c8.502-0.054,16.959-1.093,25.465-0.999c3.011,13.577,7.801,27.022,16.078,38.263c3.853,5.173,8.446,9.797,13.722,13.467
					c9.179,7.085,20.141,11.552,31.424,13.732c8.354,1.659,16.895,2.12,25.376,1.809c3.07-0.265,6.159-0.227,9.238-0.398
					c16.542-1.217,32.306-9.464,43.424-21.854c8.842-9.856,14.908-22.636,15.6-36.052c0.398-8.622,0.852-17.337-0.77-25.874
					c-1.882-9.267-5.778-18.15-11.613-25.552c-8.288-10.636-19.758-18.358-32.024-23.509c-3.606,2.513-7.572,4.602-11.866,5.573
					c-11.778,3.03-25.113-1.113-32.884-10.664c-3.945-4.726-6.437-10.69-6.971-16.862c-0.639-6.888,1.111-13.979,4.938-19.711
					c6.283-9.695,17.995-15.238,29.344-14.277c6.868,0.422,13.597,3.135,18.845,7.662c6.912,5.807,11.131,14.852,10.9,23.987
					c3.391,1.702,6.953,3.075,10.314,4.874c17.997,9.558,32.971,25.028,41.699,43.674c4.133,8.795,6.811,18.331,7.675,28.052
					c0.458,7.397,0.658,14.845,0.245,22.257c-0.544,9.514-2.352,19.057-6.239,27.771c-8.353,21.203-25.129,38.45-45.153,48.595
					c-11.891,5.941-24.978,9.729-38.274,10.02c-8.867,0.441-17.788,0.473-26.631-0.434c-10.726-1.102-21.371-3.688-31.139-8.378
					c-20.235-8.177-36.967-23.834-48.443-42.425c-3.001-4.76-5.575-9.769-7.948-14.867c-19.077,1.537-38.949-3.109-54.647-14.464
					c-4.199-3.059-8.082-6.561-11.485-10.5c-11.161-11.166-17.16-26.823-18.443-42.506C4.245,284.103,6.343,270.022,12.355,257.65z
					 M199.887,233.779c-3.25,0.383-6.253,2.315-8.021,5.095c-2.021,3.126-2.336,7.317-0.738,10.696
					c1.415,3.168,4.374,5.573,7.719,6.287c3.222,0.76,6.745-0.014,9.37-2.032c2.723-2.08,4.494-5.502,4.349-8.993
					c0.091-3.073-1.331-6.109-3.554-8.175C206.593,234.382,203.14,233.335,199.887,233.779z"/>
			</g>
		</g>
	</g>
</g>
</svg>
